<svg width="124" height="112" viewBox="0 0 124 112" fill="none" xmlns="http://www.w3.org/2000/svg">
<path d="M84 112C97.2548 112 108 101.255 108 88C108 74.7452 97.2548 64 84 64C70.7452 64 60 74.7452 60 88C60 101.255 70.7452 112 84 112Z" fill="url(#paint0_linear)" fill-opacity="0.24"/>
<path d="M94 105C110.569 105 124 91.5685 124 75C124 58.4315 110.569 45 94 45C77.4315 45 64 58.4315 64 75C64 91.5685 77.4315 105 94 105Z" fill="url(#paint1_linear)"/>
<path fill-rule="evenodd" clip-rule="evenodd" d="M34.1053 69.4187C32.8049 69.4187 31.7407 70.4848 31.7407 71.7884C31.7407 73.092 32.8049 74.1581 34.1053 74.1581C35.4057 74.1581 36.47 73.092 36.47 71.7884C36.47 70.4848 35.4057 69.4187 34.1053 69.4187ZM45.5754 64.6244C45.5754 67.2827 43.418 69.4453 40.766 69.4453C38.1133 69.4453 35.9559 67.2827 35.9559 64.6244C35.9559 61.9661 38.1133 59.8036 40.766 59.8036C43.418 59.8036 45.5754 61.9661 45.5754 64.6244ZM43.0491 64.6244C43.0491 63.3625 42.0247 62.3356 40.766 62.3356C39.5066 62.3356 38.4822 63.3625 38.4822 64.6244C38.4822 65.8863 39.5066 66.9133 40.766 66.9133C42.0247 66.9133 43.0491 65.8863 43.0491 64.6244ZM28.0561 57.6512C29.3041 57.6512 30.3159 56.6375 30.3159 55.3863C30.3159 54.1358 29.3041 53.1215 28.0561 53.1215C26.8081 53.1215 25.7963 54.1358 25.7963 55.3863C25.7963 56.6375 26.8081 57.6512 28.0561 57.6512ZM33.3771 50.2131C34.2228 50.2131 34.9081 49.5259 34.9081 48.6783C34.9081 47.8307 34.2228 47.1436 33.3771 47.1436C32.5314 47.1436 31.8455 47.8307 31.8455 48.6783C31.8455 49.5259 32.5314 50.2131 33.3771 50.2131ZM30.3159 21.4699H40.1053C40.8026 21.4699 41.3685 20.9034 41.3685 20.2042C41.3685 19.5051 40.8026 18.9379 40.1053 18.9379H30.3159C28.9226 18.9379 27.7895 17.8017 27.7895 16.4059C27.7895 15.0095 28.9226 13.8739 30.3159 13.8739H35.3685C37.4584 13.8739 39.158 12.1699 39.158 10.0756V9.81158C39.158 7.71726 37.4584 6.01326 35.3685 6.01326C34.6719 6.01326 34.1053 5.44547 34.1053 4.74758V1.26568C34.1053 0.566526 33.5394 0 32.8422 0C32.1443 0 31.579 0.566526 31.579 1.26568V4.74758C31.579 6.84189 33.2786 8.54589 35.3685 8.54589C36.0651 8.54589 36.6316 9.11368 36.6316 9.81158V10.0756C36.6316 10.7735 36.0651 11.3413 35.3685 11.3413H30.3159C27.53 11.3413 25.2632 13.6137 25.2632 16.4059C25.2632 19.1981 27.53 21.4699 30.3159 21.4699ZM6.37522 66.3758C6.40301 66.3758 6.4308 66.3752 6.45922 66.3733C7.15522 66.3272 7.68259 65.7246 7.63649 65.0267C7.05291 56.0962 11.1607 47.2251 18.3569 41.8749C20.3375 40.4021 21.4737 38.2042 21.4737 35.8453V35.7019C21.4737 35.0027 20.9079 34.4362 20.2106 34.4362C19.5127 34.4362 18.9474 35.0027 18.9474 35.7019V35.8453C18.9474 37.3945 18.1832 38.8509 16.8519 39.8413C8.97354 45.6979 4.47606 55.4122 5.11585 65.1928C5.15943 65.8623 5.71522 66.3758 6.37522 66.3758ZM80.8422 87.1471C80.0584 87.1471 79.4211 87.7863 79.4211 88.5714C79.4211 89.357 80.0584 89.9962 80.8422 89.9962C81.626 89.9962 82.2632 89.357 82.2632 88.5714C82.2632 87.7863 81.626 87.1471 80.8422 87.1471ZM77.0527 52.0137C77.8365 52.0137 78.4737 51.3752 78.4737 50.5895C78.4737 49.8044 77.8365 49.1653 77.0527 49.1653C76.2689 49.1653 75.6316 49.8044 75.6316 50.5895C75.6316 51.3752 76.2689 52.0137 77.0527 52.0137ZM68.9445 64.164C69.7276 64.164 70.3655 63.5255 70.3655 62.7398C70.3655 61.9541 69.7276 61.3156 68.9445 61.3156C68.1607 61.3156 67.5234 61.9541 67.5234 62.7398C67.5234 63.5255 68.1607 64.164 68.9445 64.164ZM5.64638 69.1156C5.64638 69.9013 6.28364 70.5398 7.06743 70.5398C7.85122 70.5398 8.48849 69.9013 8.48849 69.1156C8.48849 68.3305 7.85122 67.6914 7.06743 67.6914C6.28364 67.6914 5.64638 68.3305 5.64638 69.1156Z" fill="#9BD31D"/>
<path fill-rule="evenodd" clip-rule="evenodd" d="M50.7379 63.4933C50.7379 67.9554 49.0061 72.1422 45.8615 75.2805C42.7333 78.4289 38.5566 80.1645 34.1053 80.1645L34.0509 80.1632C33.9259 80.1575 33.8084 80.155 33.6916 80.1519C33.5558 80.1493 33.4213 80.1455 33.2804 80.1392C24.9733 79.7413 18.048 72.9234 17.5112 64.6182C17.4398 63.6184 17.4726 62.5769 17.6122 61.4426L17.7985 59.9274L19.2499 60.3916C20.6204 60.83 22.1267 61.0428 23.8554 61.0428C28.5859 61.0428 30.9177 59.4253 33.3865 57.7131C36.0657 55.8544 38.8358 53.9331 44.3552 53.9331C45.3764 53.9331 46.3598 54.0076 47.3602 54.1605L47.9349 54.2489L48.2419 54.7434C49.8745 57.3752 50.7379 60.4005 50.7379 63.4933ZM48.2116 63.4933C48.2116 61.0693 47.5851 58.6927 46.3945 56.5845C45.72 56.5043 45.048 56.4651 44.3552 56.4651C39.6246 56.4651 37.2928 58.0826 34.824 59.7948C32.1448 61.6535 29.3747 63.5748 23.8554 63.5748C22.4697 63.5748 21.1983 63.4529 20.0065 63.2041C19.9945 63.631 20.0027 64.0428 20.0318 64.4464C20.4872 71.4935 26.3583 77.2725 33.3973 77.6104C33.516 77.6154 33.6328 77.6179 33.7509 77.6205C33.8741 77.6236 33.9992 77.6268 34.1312 77.6318C37.8966 77.6255 41.4272 76.1552 44.0754 73.49C46.7438 70.8266 48.2116 67.2777 48.2116 63.4933ZM78.2305 75.8028C78.7042 76.6245 78.7042 77.6066 78.2305 78.4289C77.7568 79.2512 76.9086 79.742 75.9613 79.742H51.4383L53.4423 77.6085C55.9535 74.9344 57.5709 71.6419 58.1198 68.0881L58.2853 67.0156H73.1697L78.2305 75.8028ZM76.0434 77.0685L71.7107 69.5476H60.4213C59.8415 72.307 58.6914 74.906 57.0379 77.21H75.9613C75.9815 77.21 76.0162 77.21 76.0434 77.1626C76.0705 77.1158 76.0535 77.0862 76.0434 77.0685ZM79.2404 53.2927C78.6366 53.6426 78.4295 54.4169 78.7781 55.022L90.569 75.4933C90.8027 75.8994 91.2271 76.1262 91.6642 76.1262C91.8783 76.1262 92.0956 76.0718 92.2945 75.9563C92.8983 75.607 93.1055 74.8327 92.7568 74.227L80.9659 53.7563C80.6173 53.1506 79.8442 52.9422 79.2404 53.2927ZM77.0526 87.3057H12.6316C11.9343 87.3057 11.3684 87.8723 11.3684 88.5714C11.3684 89.2706 11.9343 89.8377 12.6316 89.8377H77.0526C77.7499 89.8377 78.3158 89.2706 78.3158 88.5714C78.3158 87.8723 77.7499 87.3057 77.0526 87.3057ZM73.0592 34.3977C73.1899 34.7786 73.2632 35.186 73.2632 35.6123C73.2632 37.7072 71.5642 39.4106 69.4737 39.4106V48.9942L86.1916 78.0253C86.9539 79.3346 86.9987 80.8902 86.3406 82.2411H94.7368C95.4341 82.2411 96 82.8083 96 83.5074C96 84.2066 95.4341 84.7737 94.7368 84.7737H82.32H45.6884H1.26316C0.565895 84.7737 0 84.2066 0 83.5074C0 82.8083 0.565895 82.2411 1.26316 82.2411H24.1137C17.7316 78.8066 13.1741 72.2268 12.6821 64.694C12.0947 55.7173 17.2042 47.2346 25.3958 43.5885C26.0842 43.2784 26.5263 42.6133 26.5263 41.8857V31.5986C24.4358 31.5986 22.7368 29.8958 22.7368 27.8003C22.7368 25.7053 24.4358 24.002 26.5263 24.002H41.6842C43.7747 24.002 45.4737 25.7053 45.4737 27.8003C45.4737 29.8958 43.7747 31.5986 41.6842 31.5986V41.8857C41.6842 42.6133 42.1263 43.2784 42.8084 43.5822C48.336 46.0409 52.4589 50.6748 54.3789 56.2074L58.1053 49.7287V39.4106C56.0147 39.4106 54.3158 37.7072 54.3158 35.6123C54.3158 33.5167 56.0147 31.814 58.1053 31.814H69.4737C70.1981 31.814 70.8695 32.0274 71.4455 32.3817L73.0592 34.3977ZM42.2451 80.4064C44.1707 79.4862 45.9467 78.2375 47.501 76.6769C51.0821 73.0939 53.0526 68.3211 53.0526 63.2502C53.0526 55.7552 48.6253 48.9436 41.7789 45.8988C40.1874 45.1902 39.1579 43.6137 39.1579 41.8857V30.3323C39.1579 29.6363 39.7263 29.0666 40.4211 29.0666H41.6842C42.3789 29.0666 42.9474 28.4969 42.9474 27.8003C42.9474 27.1043 42.3789 26.5346 41.6842 26.5346H26.5263C25.8316 26.5346 25.2632 27.1043 25.2632 27.8003C25.2632 28.4969 25.8316 29.0666 26.5263 29.0666H27.7895C28.4842 29.0666 29.0526 29.6363 29.0526 30.3323V41.8857C29.0526 43.6137 28.0168 45.1902 26.4189 45.8988C19.1937 49.1211 14.6842 56.6097 15.2021 64.5291C15.8211 73.9927 23.7095 81.7668 33.1705 82.2158C36.3568 82.3681 39.4276 81.7415 42.1901 80.4329C42.2034 80.4266 42.2141 80.4177 42.2274 80.4121C42.2331 80.4095 42.2394 80.4089 42.2451 80.4064ZM84.0063 79.298L67.1179 49.9693C67.0042 49.7792 66.9474 49.5575 66.9474 49.3365V38.1443C66.9474 37.4476 67.5158 36.878 68.2105 36.878H69.4737C70.1684 36.878 70.7368 36.3083 70.7368 35.6123C70.7368 34.9156 70.1684 34.346 69.4737 34.346H58.1053C57.4105 34.346 56.8421 34.9156 56.8421 35.6123C56.8421 36.3083 57.4105 36.878 58.1053 36.878H59.3684C60.0632 36.878 60.6316 37.4476 60.6316 38.1443V50.0704C60.6316 50.2921 60.5747 50.5137 60.4611 50.7038L55.2758 59.714C55.4684 60.8716 55.5789 62.0521 55.5789 63.2502C55.5789 68.9982 53.3432 74.4045 49.2884 78.4687C47.9027 79.8575 46.3573 81.0278 44.6987 81.974C44.9709 82.135 45.2987 82.2411 45.6884 82.2411H82.32C83.0274 82.2411 83.6589 81.8742 84.0126 81.2603C84.3663 80.6401 84.3663 79.9055 84.0063 79.298Z" fill="#4D3A33"/>
<defs>
<linearGradient id="paint0_linear" x1="60" y1="112" x2="108" y2="64" gradientUnits="userSpaceOnUse">
<stop stop-color="#F37938" stop-opacity="0.976562"/>
<stop offset="1" stop-color="#FC5050" stop-opacity="0.980469"/>
</linearGradient>
<linearGradient id="paint1_linear" x1="64" y1="105" x2="124" y2="45" gradientUnits="userSpaceOnUse">
<stop stop-color="#F37938" stop-opacity="0.976562"/>
<stop offset="1" stop-color="#FC5050" stop-opacity="0.980469"/>
</linearGradient>
</defs>
</svg>
