<svg width="128" height="108" viewBox="0 0 128 108" fill="none" xmlns="http://www.w3.org/2000/svg">
<path d="M88 108C101.255 108 112 97.2548 112 84C112 70.7452 101.255 60 88 60C74.7452 60 64 70.7452 64 84C64 97.2548 74.7452 108 88 108Z" fill="url(#paint0_linear)" fill-opacity="0.24"/>
<path d="M98 101C114.569 101 128 87.5685 128 71C128 54.4315 114.569 41 98 41C81.4315 41 68 54.4315 68 71C68 87.5685 81.4315 101 98 101Z" fill="url(#paint1_linear)"/>
<path fill-rule="evenodd" clip-rule="evenodd" d="M77.7721 91.4102H15.7974C15.1254 91.4102 14.5822 91.9559 14.5822 92.6291C14.5822 93.3024 15.1254 93.848 15.7974 93.848H77.7721C78.4435 93.848 78.9873 93.3024 78.9873 92.6291C78.9873 91.9559 78.4435 91.4102 77.7721 91.4102ZM4.8607 86.5351C4.18931 86.5351 3.64551 87.0808 3.64551 87.754C3.64551 88.4273 4.18931 88.9729 4.8607 88.9729H94.7848C95.4561 88.9729 95.9999 88.4273 95.9999 87.754C95.9999 87.0808 95.4561 86.5351 94.7848 86.5351H77.7721H37.6708H4.8607ZM77.7721 86.5351C73.7516 86.5351 70.481 83.2549 70.481 79.2222H44.962C44.962 83.2549 41.6913 86.5351 37.6708 86.5351C33.6504 86.5351 30.3797 83.2549 30.3797 79.2222H25.5189C24.8506 79.2222 24.3037 78.674 24.3037 78.0032V74.4447H19.9777C17.6202 74.4447 15.7002 72.519 15.7002 70.1544V47.3995C12.7108 43.3533 10.9366 38.3317 10.9366 32.9079C10.9366 26.6308 13.3063 20.9024 17.207 16.576V16.5754L15.4316 14.7956L14.3446 15.8851C13.7674 16.4649 12.8305 16.4649 12.2527 15.8851L11.7776 15.4084C11.1997 14.8291 11.1997 13.8898 11.7776 13.3105L15.7178 9.35831C16.2956 8.77845 17.2319 8.77845 17.8098 9.35831L18.2855 9.83502C18.8627 10.4143 18.8627 11.3536 18.2855 11.9329L17.1511 13.0706L18.9204 14.845C22.6711 11.433 27.4881 9.1868 32.8101 8.65699V7.31294H30.3797C29.0399 7.31294 27.9493 6.21975 27.9493 4.87509V2.43785C27.9493 1.09319 29.0399 0 30.3797 0H40.1012C41.441 0 42.5316 1.09319 42.5316 2.43785V4.87509C42.5316 6.21975 41.441 7.31294 40.1012 7.31294H37.6708V8.65638C43.0669 9.19656 47.9525 11.5111 51.7306 15.0037L53.6548 13.0737L52.5174 11.9329C51.9402 11.3536 51.9402 10.4143 52.5174 9.83502L52.9932 9.35831C53.571 8.77845 54.5073 8.77845 55.0851 9.35831L59.0254 13.3105C59.6032 13.8898 59.6032 14.8291 59.0254 15.4084L58.5502 15.8851C57.9724 16.4649 57.0361 16.4649 56.4583 15.8851L55.3707 14.7949L53.4318 16.7463C56.4455 20.1589 58.5235 24.4371 59.2526 29.1541H66.3007C68.6582 29.1541 70.5782 31.0798 70.5782 33.4438V47.5332H84.3359C85.9971 47.5332 87.49 48.4597 88.2343 49.9497L94.1358 61.7879C94.5606 62.6388 94.7848 63.5934 94.7848 64.5468V71.9092C95.4531 71.9092 95.9999 72.4579 95.9999 73.1281V78.0032C95.9999 78.674 95.4531 79.2222 94.7848 79.2222H85.0632C85.0632 83.2549 81.7925 86.5351 77.7721 86.5351ZM32.8101 4.87509H37.6708H40.1024L40.1012 2.43785H30.3797V4.87509H32.8101ZM18.325 46.7897C22.3351 51.7136 28.4354 54.8461 35.2404 54.8461C47.2951 54.8461 57.1139 45.0105 57.1139 32.9079C57.1139 32.5301 57.1017 32.1523 57.0896 31.7866C57.041 30.8845 56.9437 30.019 56.7858 29.1541C56.0931 25.0835 54.2703 21.4145 51.6577 18.4407L50.0554 16.7732C50.0548 16.7714 50.0542 16.772 50.0536 16.7707C46.1529 13.1756 40.9518 10.9691 35.2404 10.9691C29.6384 10.9691 24.5225 13.0902 20.646 16.5882C20.0384 17.1241 19.4673 17.6973 18.9447 18.3065C15.4693 22.1946 13.367 27.3132 13.367 32.9079C13.367 36.4426 14.2055 39.7698 15.7002 42.7313C16.4172 44.1816 17.3042 45.547 18.325 46.7897ZM32.163 74.4447H26.7341V76.7849H30.805C31.1118 75.9182 31.5742 75.1265 32.163 74.4447ZM42.5316 79.2222C42.5316 76.534 40.3515 74.3471 37.6708 74.3471C34.9901 74.3471 32.8101 76.534 32.8101 79.2222C32.8101 81.9103 34.9901 84.0972 37.6708 84.0972C40.3515 84.0972 42.5316 81.9103 42.5316 79.2222ZM66.3007 71.8122C67.2121 71.8122 67.9534 71.0687 67.9534 70.1544V33.4438C67.9534 32.5301 67.2121 31.7866 66.3007 31.7866H59.5078C59.5321 32.1645 59.5442 32.5301 59.5442 32.9079C59.5442 46.3515 48.644 57.284 35.2404 57.284C28.6663 57.284 22.6997 54.6636 18.325 50.3977V70.1544C18.325 71.0687 19.0663 71.8122 19.9777 71.8122H66.3007ZM82.6329 79.2222C82.6329 76.534 80.4528 74.3471 77.7721 74.3471C75.0914 74.3471 72.9113 76.534 72.9113 79.2222C72.9113 81.9103 75.0914 84.0972 77.7721 84.0972C80.4528 84.0972 82.6329 81.9103 82.6329 79.2222ZM84.6379 76.7849H93.5696V74.3471H87.4936C86.8253 74.3471 86.2784 73.799 86.2784 73.1281C86.2784 72.4579 86.8253 71.9092 87.4936 71.9092H92.3544V64.5468C92.3544 63.97 92.2189 63.3926 91.9619 62.8787L86.0603 51.0398C85.7316 50.3806 85.0705 49.971 84.3359 49.971H70.5782V70.1544C70.5782 72.519 68.6582 74.4447 66.3007 74.4447H43.1787C43.7674 75.1265 44.2298 75.9182 44.5367 76.7849H70.9063C71.91 73.9491 74.6047 71.9092 77.7721 71.9092C80.9395 71.9092 83.6336 73.9491 84.6379 76.7849ZM85.9199 63.378H81.3119C80.2486 63.378 79.2066 63.0087 78.3785 62.3385L73.6174 58.4864C72.5219 57.6001 71.893 56.2817 71.893 54.8705V54.5177C71.893 52.6829 73.381 51.1899 75.2111 51.1899H82.4724C83.6329 51.1899 84.6762 51.8369 85.1951 52.8776L88.4123 59.3324C88.8479 60.2046 88.8024 61.2209 88.2908 62.0522C87.7798 62.8823 86.8933 63.378 85.9199 63.378ZM81.3119 60.9401H85.9199C86.0931 60.9401 86.1836 60.8339 86.2225 60.7704C86.262 60.7076 86.3161 60.5776 86.2383 60.4231L83.0211 53.9678C82.9166 53.7578 82.7064 53.6272 82.4724 53.6272H75.2111C74.722 53.6272 74.3234 54.027 74.3234 54.5177V54.8705C74.3234 55.5413 74.6223 56.1682 75.1436 56.5893L79.9047 60.4414C80.3021 60.7631 80.8016 60.9401 81.3119 60.9401ZM15.7974 32.9079C15.7974 22.1555 24.52 13.4069 35.2404 13.4069C45.9615 13.4069 54.6835 22.1555 54.6835 32.9079C54.6835 43.6603 45.9615 52.4089 35.2404 52.4089C24.52 52.4089 15.7974 43.6603 15.7974 32.9079ZM18.2278 32.9079C18.2278 42.3169 25.8592 49.971 35.2404 49.971C44.6217 49.971 52.2531 42.3169 52.2531 32.9079C52.2531 23.4989 44.6217 15.8448 35.2404 15.8448C25.8592 15.8448 18.2278 23.4989 18.2278 32.9079Z" fill="#4D3A33"/>
<path fill-rule="evenodd" clip-rule="evenodd" d="M84.1628 45.0959H77.7746C77.1026 45.0959 76.5594 44.5502 76.5594 43.877C76.5594 43.2037 77.1026 42.658 77.7746 42.658H84.1628C84.8342 42.658 85.378 43.2037 85.378 43.877C85.378 44.5502 84.8342 45.0959 84.1628 45.0959ZM77.7722 65.8152C77.7722 66.4884 77.2284 67.0341 76.557 67.0341H74.1266C73.4552 67.0341 72.9114 66.4884 72.9114 65.8152C72.9114 65.1425 73.4552 64.5968 74.1266 64.5968H76.557C77.2284 64.5968 77.7722 65.1425 77.7722 65.8152ZM74.1266 45.2479C73.3732 45.2479 72.7595 44.6326 72.7595 43.877C72.7595 43.1213 73.3732 42.506 74.1266 42.506C74.88 42.506 75.4937 43.1213 75.4937 43.877C75.4937 44.6326 74.88 45.2479 74.1266 45.2479ZM44.1169 60.7734C43.9935 60.8137 43.869 60.8326 43.7468 60.8326C43.2316 60.8326 42.7546 60.5024 42.59 59.9842C42.3846 59.3433 42.737 58.6573 43.3768 58.4528C51.9354 55.7042 58.7076 48.5964 61.0524 39.9022C61.2267 39.2521 61.8987 38.8682 62.5422 39.044C63.1899 39.2198 63.5733 39.8894 63.3977 40.5388C60.8415 50.0229 53.4532 57.7765 44.1169 60.7734ZM48.6076 34.1268H46.1772C45.5052 34.1268 44.962 33.5811 44.962 32.9079C44.962 32.2346 45.5052 31.6889 46.1772 31.6889H48.6076C49.279 31.6889 49.8228 32.2346 49.8228 32.9079C49.8228 33.5811 49.279 34.1268 48.6076 34.1268ZM38.5209 31.341C38.7482 31.8177 38.8861 32.3451 38.8861 32.9079C38.8861 34.9239 37.251 36.564 35.2405 36.564C33.23 36.564 31.5949 34.9239 31.5949 32.9079C31.5949 30.8918 33.23 29.2511 35.2405 29.2511C35.8013 29.2511 36.3275 29.3896 36.8026 29.6179L42.8877 23.5141C43.3622 23.038 44.1314 23.038 44.606 23.5141C45.0805 23.9902 45.0805 24.7618 44.606 25.2378L38.5209 31.341ZM35.2405 23.1571C34.5685 23.1571 34.0253 22.6114 34.0253 21.9388V19.5009C34.0253 18.8277 34.5685 18.282 35.2405 18.282C35.9119 18.282 36.4557 18.8277 36.4557 19.5009V21.9388C36.4557 22.6114 35.9119 23.1571 35.2405 23.1571ZM24.3038 34.1268H21.8734C21.2014 34.1268 20.6582 33.5811 20.6582 32.9079C20.6582 32.2346 21.2014 31.6889 21.8734 31.6889H24.3038C24.9752 31.6889 25.519 32.2346 25.519 32.9079C25.519 33.5811 24.9752 34.1268 24.3038 34.1268ZM12.1519 67.0341H4.86076C4.18937 67.0341 3.64557 66.4884 3.64557 65.8152C3.64557 65.1425 4.18937 64.5968 4.86076 64.5968H12.1519C12.8233 64.5968 13.3671 65.1425 13.3671 65.8152C13.3671 66.4884 12.8233 67.0341 12.1519 67.0341ZM12.1519 57.2839H1.21519C0.54319 57.2839 0 56.7382 0 56.065C0 55.3917 0.54319 54.8461 1.21519 54.8461H12.1519C12.8233 54.8461 13.3671 55.3917 13.3671 56.065C13.3671 56.7382 12.8233 57.2839 12.1519 57.2839ZM35.2405 42.658C35.9119 42.658 36.4557 43.2037 36.4557 43.877V46.3148C36.4557 46.9874 35.9119 47.5331 35.2405 47.5331C34.5685 47.5331 34.0253 46.9874 34.0253 46.3148V43.877C34.0253 43.2037 34.5685 42.658 35.2405 42.658ZM37.6709 77.8512C38.4243 77.8512 39.038 78.4664 39.038 79.2221C39.038 79.9777 38.4243 80.5936 37.6709 80.5936C36.9175 80.5936 36.3038 79.9777 36.3038 79.2221C36.3038 78.4664 36.9175 77.8512 37.6709 77.8512ZM38.2748 60.832C38.2748 60.0764 38.8885 59.4605 39.6419 59.4605C40.3953 59.4605 41.009 60.0764 41.009 60.832C41.009 61.5877 40.3953 62.2029 39.6419 62.2029C38.8885 62.2029 38.2748 61.5877 38.2748 60.832ZM77.7722 77.8512C78.5256 77.8512 79.1392 78.4664 79.1392 79.2221C79.1392 79.9777 78.5256 80.5936 77.7722 80.5936C77.0187 80.5936 76.4051 79.9777 76.4051 79.2221C76.4051 78.4664 77.0187 77.8512 77.7722 77.8512ZM81.4177 91.2581C82.1711 91.2581 82.7848 91.8734 82.7848 92.6291C82.7848 93.3847 82.1711 94 81.4177 94C80.6643 94 80.0506 93.3847 80.0506 92.6291C80.0506 91.8734 80.6643 91.2581 81.4177 91.2581Z" fill="#9BD31D"/>
<defs>
<linearGradient id="paint0_linear" x1="64" y1="108" x2="112" y2="60" gradientUnits="userSpaceOnUse">
<stop stop-color="#F37938" stop-opacity="0.976562"/>
<stop offset="1" stop-color="#FC5050" stop-opacity="0.980469"/>
</linearGradient>
<linearGradient id="paint1_linear" x1="68" y1="101" x2="128" y2="41" gradientUnits="userSpaceOnUse">
<stop stop-color="#F37938" stop-opacity="0.976562"/>
<stop offset="1" stop-color="#FC5050" stop-opacity="0.980469"/>
</linearGradient>
</defs>
</svg>
