<svg width="124" height="121" viewBox="0 0 124 121" fill="none" xmlns="http://www.w3.org/2000/svg">
<path d="M84 121C97.2548 121 108 110.255 108 97C108 83.7452 97.2548 73 84 73C70.7452 73 60 83.7452 60 97C60 110.255 70.7452 121 84 121Z" fill="url(#paint0_linear)" fill-opacity="0.24"/>
<path d="M94 114C110.569 114 124 100.569 124 84C124 67.4315 110.569 54 94 54C77.4315 54 64 67.4315 64 84C64 100.569 77.4315 114 94 114Z" fill="url(#paint1_linear)"/>
<path fill-rule="evenodd" clip-rule="evenodd" d="M73.2955 98.3552H89.6837V101.002C73.4462 101.002 22.126 101.002 3.06953 101.002V98.3552H19.4586V85.8125C15.1462 81.4931 12.3687 75.561 11.5349 69.0628H4.43099C1.98832 69.0628 0 67.0628 0 64.6053V50.8221C0 48.3646 1.98832 46.3645 4.43099 46.3645H12.3117C13.7996 40.9663 16.8059 36.1997 20.8434 32.5642L20.6186 32.5845C19.9223 24.8794 17.9144 20.1643 15.3695 15.9324C26.1956 15.9292 33.6969 14.4975 41.6002 25.2026H43.8516C41.6065 9.11024 62.6419 1.38255 71.4008 14.6802C75.1972 20.4438 74.6101 27.8576 70.2931 32.9404C80.7453 42.7259 79.44 53.3732 79.44 64.9254C79.44 72.2026 77.2612 78.8389 73.2955 83.6774V98.3552ZM23.0675 30.7538C27.4025 27.5664 32.6531 25.5695 38.3433 25.251C32.4986 17.713 24.7092 18.5772 19.8395 18.5772C20.8583 20.8544 22.3657 25.0098 23.0675 30.7538ZM55.3022 98.3552V93.4223C51.648 94.0086 39.2973 93.8392 37.4518 93.6791V98.3552H55.3022ZM70.6647 98.3552V82.7024C77.8771 74.276 76.8092 65.6381 76.8092 54.0673C76.8092 46.7197 73.7647 39.7696 68.4227 34.8078C67.4976 35.572 66.4773 36.2371 65.3656 36.7766L64.2212 34.3932C75.0254 29.1441 72.8739 13.14 61.2859 10.7738C50.4934 8.57783 42.2333 20.6483 48.402 30.0177L46.2092 31.4791C45.4574 30.337 44.8844 29.1152 44.466 27.8498H39.9569C25.5867 27.8498 13.8964 39.6103 13.8964 54.0673H11.2656C11.2656 52.342 11.4256 50.6542 11.7153 49.011H4.43099C3.43878 49.011 2.63158 49.8236 2.63158 50.8221V64.6053C2.63158 65.603 3.43878 66.4156 4.43099 66.4156H11.2999C11.2773 65.9207 11.2656 65.4242 11.2656 64.9254H13.8964C13.8964 72.3088 16.4694 79.3042 22.0901 84.686V98.3552H34.821V93.3271C33.0645 93.0086 31.3424 92.5261 29.6679 91.879L30.6117 89.4074C36.2012 91.5675 39.5127 91.1428 50.7495 91.1428C54.157 91.1428 57.4693 90.4917 60.5966 89.2068L61.5919 91.6572C60.396 92.1483 59.1743 92.5503 57.9338 92.8719V98.3552H70.6647ZM87.2879 55.5973H81.1965V58.2445H87.2879C90.6416 58.2445 93.3692 60.9885 93.3692 64.3617C93.3692 66.9145 91.3052 68.991 88.7673 68.991C84.75 68.991 84.1107 63.0658 87.8211 63.0658V60.4186C85.0076 60.4186 82.718 62.7223 82.718 65.553C82.718 68.9082 85.4315 71.6382 88.7673 71.6382C92.7556 71.6382 96 68.3743 96 64.3617C96 59.5287 92.0921 55.5973 87.2879 55.5973ZM50.5293 82.0849H42.793V84.7321H50.5293C58.9245 84.7321 66.318 79.6469 69.3633 71.7787L66.9121 70.8185C64.2633 77.6625 57.8315 82.0849 50.5293 82.0849ZM19.2376 108.511H60.7145V105.864H19.2376V108.511Z" fill="#4D3A33"/>
<path fill-rule="evenodd" clip-rule="evenodd" d="M45.6089 37.1232V34.476C51.111 34.476 58.2969 33.6813 64.8114 40.5276L62.9121 42.3574C57.2664 36.4276 51.1929 37.1232 45.6089 37.1232ZM35.4035 47.5628C35.4035 50.5598 32.9795 52.9985 30.0006 52.9985C27.0216 52.9985 24.5977 50.5598 24.5977 47.5628C24.5977 44.5659 27.0216 42.1271 30.0006 42.1271C32.9795 42.1271 35.4035 44.5659 35.4035 47.5628ZM30.0006 44.7743C26.3377 44.7743 26.3377 50.3513 30.0006 50.3513C33.6626 50.3513 33.6634 44.7743 30.0006 44.7743ZM68.1034 64.4039C68.1034 65.4374 68.0144 66.4702 67.8404 67.4749L70.4313 67.9316C70.6328 66.7763 70.735 65.5897 70.735 64.4039H68.1034ZM66.8591 108.511H73.0036V105.864H66.8591V108.511ZM71.7179 4.12107C70.7046 3.40833 69.6234 2.77366 68.5039 2.23657L67.3696 4.62459C68.3595 5.10079 69.3158 5.66051 70.2104 6.2905L71.7179 4.12107ZM77.0271 9.32099C76.2933 8.32176 75.4705 7.37327 74.5821 6.50362L72.7475 8.40061C73.5337 9.17033 74.262 10.0095 74.9123 10.894L77.0271 9.32099ZM77.782 29.7882L80.2691 30.6531C80.6719 29.4829 80.9842 28.2729 81.2012 27.0379L78.6095 26.5773C78.4135 27.6983 78.1294 28.7835 77.782 29.7882ZM77.9202 16.7614L80.4229 15.9433C80.0412 14.7621 79.5595 13.6005 78.9904 12.4928L76.6524 13.7059C77.1559 14.688 77.5821 15.7161 77.9202 16.7614ZM78.9139 23.2838L81.5455 23.3111C81.5541 22.0675 81.4823 20.8871 81.2832 19.5811L78.6828 19.9824C78.8593 21.1463 78.9225 22.1986 78.9139 23.2838ZM64.2931 3.4458L65.0331 0.905557C63.8333 0.551141 62.6006 0.301332 61.3906 0.150666L61.0705 2.77912C62.1752 2.91496 63.2853 3.14837 64.2931 3.4458ZM45.694 7.31081L44.0219 5.26706C43.064 6.05943 42.1663 6.93532 41.352 7.8682L43.3294 9.61374C44.05 8.78859 44.8462 8.01262 45.694 7.31081ZM57.784 2.64563L57.6739 0C56.4413 0.0515231 55.2 0.206092 53.9853 0.459805L54.5201 3.05157C55.5943 2.82752 56.6919 2.69091 57.784 2.64563ZM41.3684 12.2711L39.135 10.8722C38.4808 11.9284 37.9086 13.0478 37.4332 14.1977L39.8618 15.2149C40.2825 14.1962 40.79 13.2063 41.3684 12.2711ZM51.3631 3.98523L50.4224 1.51212C49.2725 1.95554 48.1453 2.49965 47.0703 3.12964L48.3959 5.41695C49.3475 4.858 50.3451 4.37634 51.3631 3.98523Z" fill="#9BD31D"/>
<defs>
<linearGradient id="paint0_linear" x1="60" y1="121" x2="108" y2="73" gradientUnits="userSpaceOnUse">
<stop stop-color="#F37938" stop-opacity="0.976562"/>
<stop offset="1" stop-color="#FC5050" stop-opacity="0.980469"/>
</linearGradient>
<linearGradient id="paint1_linear" x1="64" y1="114" x2="124" y2="54" gradientUnits="userSpaceOnUse">
<stop stop-color="#F37938" stop-opacity="0.976562"/>
<stop offset="1" stop-color="#FC5050" stop-opacity="0.980469"/>
</linearGradient>
</defs>
</svg>
